<svg xmlns="http://www.w3.org/2000/svg" viewBox="0 0 28 28" fill="currentColor" preserveAspectRatio="xMidYMid meet">
  <path d="M6.582 9.455c3.336 0.626 5.545-0.39 7.382-2.255 1.837 1.865 4.046 2.881 7.382 2.255-0.762 4.88-3.19 10.566-7.382 14.608-4.192-4.042-6.62-9.728-7.382-14.608Z"/>
  <path d="M15.916 6.44C14.455 4.725 12.345 3.841 9 4.5c0 2.2 1.236 3.93 2.889 4.876 1.395 0.746 3.533 0.692 4.027-2.937Z"/>
  <path d="M12.01 6.44c1.46-1.716 3.572-2.599 6.916-1.94 0 2.2-1.235 3.93-2.888 4.876-1.395 0.746-3.533 0.692-4.028-2.937Z"/>
</svg>
